<?xml version="1.0" standalone="no"?>
<!DOCTYPE svg PUBLIC "-//W3C//DTD SVG 20010904//EN"
 "http://www.w3.org/TR/2001/REC-SVG-20010904/DTD/svg10.dtd">
<svg version="1.0" xmlns="http://www.w3.org/2000/svg"
 width="960.000000pt" height="538.000000pt" viewBox="0 0 960.000000 538.000000"
 preserveAspectRatio="xMidYMid meet">
<metadata>
Created by potrace 1.16, written by Peter Selinger 2001-2019
</metadata>
<g transform="translate(0.000000,538.000000) scale(0.100000,-0.100000)"
fill="#000000" stroke="none">
<path d="M0 2690 l0 -2690 1402 0 c1320 0 1403 1 1422 17 20 17 20 17 7 0 -13
-16 74 -17 1830 -17 l1843 0 -54 58 -55 57 60 -57 60 -58 1543 0 1542 0 0
2690 0 2690 -4800 0 -4800 0 0 -2690z m4183 2313 c6 -4 2 -10 -9 -14 -12 -5 1
-8 39 -8 34 -1 57 -5 57 -12 0 -6 6 -9 13 -6 8 3 19 2 26 -2 13 -9 -82 -31
-130 -31 -29 0 -46 -14 -29 -25 5 -3 43 -7 82 -7 54 -1 76 -5 84 -17 10 -13
14 -13 28 -2 13 11 15 9 13 -18 l-2 -31 -80 -2 c-44 0 -89 -1 -100 -1 -11 0
-108 2 -215 3 -107 2 -182 5 -167 7 15 2 27 10 26 16 -6 47 1 51 31 17 25 -30
29 -32 31 -15 1 11 1 23 0 28 -2 11 17 9 24 -3 3 -5 14 -10 23 -9 14 0 13 2
-3 9 -18 8 -17 9 8 9 17 1 39 -9 55 -24 15 -14 33 -25 41 -25 8 0 4 8 -10 20
-23 18 -16 27 15 21 6 -1 19 2 30 7 12 5 32 15 46 21 24 10 23 11 -10 8 -22
-1 -35 3 -36 11 -1 6 -2 16 -3 22 0 5 -33 8 -72 7 -56 -2 -73 1 -77 13 -3 12
-2 12 8 3 10 -9 16 -8 27 3 8 8 25 14 38 14 13 0 26 4 30 9 6 11 152 14 168 4z
m3201 -28 c52 -6 64 -11 53 -22 -4 -3 -19 -1 -33 6 -23 10 -26 10 -20 -4 3 -9
2 -13 -3 -10 -17 10 -21 -13 -5 -29 14 -15 13 -16 -13 -16 -22 0 -25 2 -13 11
12 8 9 9 -12 5 -23 -5 -28 -3 -28 14 0 19 -2 20 -36 5 -20 -8 -51 -14 -68 -14
l-31 1 30 8 c21 5 2 8 -62 9 -51 0 -93 5 -93 10 0 6 9 8 20 6 11 -2 22 0 25 6
4 5 -15 10 -42 11 -26 1 4 4 67 7 126 7 189 6 264 -4z m-24 -105 c0 -10 -6
-21 -12 -23 -26 -11 21 -7 49 4 19 7 29 7 31 0 2 -6 11 -11 19 -11 12 0 13 3
5 13 -9 10 -4 17 18 31 25 14 29 15 24 1 -3 -8 -13 -15 -21 -15 -8 0 -13 -6
-11 -12 7 -21 86 -22 116 -2 l27 17 -19 -21 c-18 -21 -28 -22 -188 -22 -95 0
-167 4 -165 9 1 5 -2 9 -7 9 -5 0 -12 6 -17 13 -4 8 -11 10 -16 6 -4 -4 -1
-17 6 -29 13 -21 13 -21 -70 -15 -46 4 -120 8 -164 9 -67 2 -59 3 45 8 118 5
125 6 128 26 3 18 10 21 43 21 21 0 39 -4 39 -8 0 -15 77 -10 89 5 15 18 51 8
51 -14z m-6417 -101 c9 -6 17 -17 17 -25 0 -9 5 -12 12 -8 6 4 8 3 5 -3 -4 -6
-9 -28 -12 -49 -3 -22 -8 -44 -9 -50 -3 -6 -55 -11 -140 -12 -121 -1 -136 1
-136 15 0 14 -2 14 -16 -3 -15 -17 -15 -17 0 8 10 17 12 29 6 33 -15 9 -12 27
3 19 10 -6 10 -4 0 7 -16 16 -17 43 -2 33 8 -5 8 -1 0 14 -9 17 -8 21 7 25 31
9 246 5 265 -4z m1122 1 c14 -5 23 -15 20 -20 -4 -6 -2 -17 4 -24 16 -20 2
-104 -18 -108 -9 -2 -39 5 -68 14 -28 10 -82 21 -120 24 l-68 6 3 59 4 59 108
0 c60 0 121 -4 135 -10z m2270 -3 c36 -11 43 -21 24 -33 -8 -4 -7 -9 2 -15 12
-7 12 -9 0 -9 -9 0 -10 -4 -3 -12 5 -7 12 -31 14 -53 l3 -40 -57 2 c-64 2 -72
-2 -31 -18 20 -7 24 -12 14 -18 -8 -5 -10 -14 -6 -21 6 -9 4 -11 -4 -6 -7 5
-10 14 -7 21 3 8 -4 17 -15 20 -10 4 -19 12 -19 18 0 7 -12 18 -28 24 -27 12
-27 12 -6 -5 22 -18 21 -18 -30 -15 -58 4 -84 -10 -88 -48 -3 -21 2 -24 43
-29 25 -3 54 -13 63 -23 13 -12 34 -17 82 -17 36 0 64 -4 64 -10 0 -5 5 -10
10 -10 6 0 9 6 8 12 -2 7 4 13 12 13 12 0 16 -18 18 -87 3 -73 0 -88 -12 -88
-10 0 -14 10 -14 30 1 16 -4 36 -10 43 -7 8 -9 17 -5 20 3 4 1 7 -6 7 -8 0
-11 -7 -7 -15 4 -12 -3 -15 -32 -15 -43 0 -107 31 -107 51 -1 8 -7 13 -13 11
-7 -1 -22 3 -34 9 -18 10 -20 9 -15 -6 6 -15 -1 -16 -75 -14 -75 3 -88 0 -129
-24 -30 -18 -60 -27 -87 -27 -46 0 -50 -5 -27 -30 13 -14 22 -15 55 -6 22 5
40 14 40 19 0 4 5 5 10 2 6 -4 8 -10 5 -15 -3 -5 -1 -18 5 -29 7 -13 7 -22 0
-26 -5 -3 -10 -17 -10 -30 0 -13 -5 -27 -12 -31 -7 -4 -8 -3 -4 4 4 7 2 12 -3
12 -6 0 -11 -7 -11 -15 0 -8 5 -15 11 -15 6 0 4 -7 -5 -15 -11 -11 -12 -23 -6
-46 8 -27 6 -32 -10 -36 -12 -3 -20 -15 -21 -27 -1 -17 -2 -17 -6 -3 -2 9 -9
14 -15 11 -6 -4 -9 19 -6 65 1 39 0 71 -4 71 -5 0 -8 -147 -9 -327 0 -181 -1
-537 -1 -793 -1 -256 -4 -492 -8 -525 -8 -72 -10 88 -13 1061 -2 580 -5 715
-16 728 -8 9 -11 19 -8 23 4 3 2 14 -4 24 -7 13 -7 25 0 37 9 14 10 15 11 1 0
-18 30 -22 30 -3 0 7 10 15 23 19 84 22 126 40 114 48 -7 5 -2 6 13 2 65 -18
78 -17 89 3 7 14 8 23 1 27 -6 4 -7 11 -4 17 9 14 -124 5 -153 -10 -12 -7 -31
-12 -42 -12 -12 0 -21 -4 -21 -10 0 -5 -7 -10 -16 -10 -9 0 -14 6 -11 13 4 10
-2 13 -19 9 -39 -7 -27 15 14 26 20 5 30 10 21 11 -12 1 -15 8 -12 29 4 21 2
24 -6 12 -9 -13 -11 -13 -11 2 0 9 6 23 14 30 12 12 11 20 -4 51 -19 38 -15
47 9 25 10 -9 12 -9 7 -1 -9 16 38 19 282 20 111 1 207 -4 227 -10z m2715 -72
c0 -84 0 -85 -25 -85 -31 0 -33 -19 -2 -21 l22 -2 -23 -4 c-16 -3 -22 -9 -18
-20 3 -8 6 -22 6 -31 0 -13 2 -14 9 -4 6 10 10 8 16 -10 12 -37 15 -68 5 -68
-15 0 -19 -29 -6 -43 12 -11 11 -16 -8 -27 -19 -12 -20 -12 -7 3 7 10 9 17 4
17 -15 0 -32 69 -32 125 0 28 -4 61 -9 75 l-10 25 -5 -25 c-6 -27 -16 -224
-20 -387 -1 -57 -6 -103 -11 -103 -4 0 -6 -6 -3 -12 18 -51 19 -61 3 -55 -13
5 -16 -1 -16 -37 0 -25 4 -46 10 -48 14 -4 20 -68 6 -69 -6 0 -7 -2 -1 -5 14
-6 7 -177 -8 -186 -9 -6 -8 -8 1 -8 9 0 13 -17 12 -62 -1 -35 2 -162 7 -283
12 -270 14 -1201 3 -1160 -8 33 -13 19 -11 -35 1 -32 0 -34 -13 -17 -14 18
-15 18 -19 -5 -3 -12 -3 1 -2 29 2 29 1 53 -3 53 -4 0 -8 -19 -10 -43 -1 -23
-8 -44 -14 -46 -6 -2 -5 -6 3 -12 23 -14 3 -20 -25 -8 -24 11 -24 13 -8 25 14
10 15 15 5 25 -10 10 -13 10 -13 1 0 -7 -5 -12 -11 -12 -6 0 -8 9 -4 20 4 13
2 20 -7 21 -9 0 -9 2 2 7 11 5 14 16 9 42 -4 23 -7 27 -8 12 0 -13 -5 -21 -10
-18 -5 4 -11 0 -14 -6 -2 -7 -4 -1 -4 14 0 15 3 25 8 23 4 -3 6 5 3 17 -2 13
-4 41 -4 63 0 22 0 50 0 63 0 19 3 21 20 12 16 -8 18 -8 14 4 -3 9 -11 14 -17
13 -13 -2 -15 22 -16 201 -1 66 -5 112 -11 112 -6 0 -11 -117 -13 -317 -1
-175 -3 269 -3 987 -1 718 2 1292 6 1275 4 -16 8 -255 8 -530 1 -872 2 -938 7
-933 3 2 5 55 6 116 0 62 5 114 9 117 5 3 4 20 -1 38 -7 24 -6 35 4 42 23 17
28 57 9 71 -12 9 -13 15 -6 25 6 8 12 34 13 59 1 33 -1 41 -9 30 -7 -11 -10 6
-9 58 1 40 6 75 12 79 6 3 7 1 3 -5 -4 -7 -2 -12 5 -12 6 0 9 -8 6 -20 -3 -11
-1 -20 4 -20 5 0 9 17 9 38 -1 20 2 55 5 77 7 44 7 307 0 313 -2 3 -10 -16
-17 -41 -7 -27 -15 -42 -19 -35 -4 7 -1 24 7 39 8 16 14 38 14 51 0 19 2 20
10 8 6 -9 10 -10 10 -3 0 20 -20 25 -26 6 -18 -57 -23 -55 -21 10 1 37 0 67
-3 67 -11 0 -4 335 7 355 7 11 13 14 13 7 0 -7 5 -10 11 -7 6 4 8 14 5 22 -3
8 -1 11 4 8 6 -3 11 2 11 12 1 17 2 17 6 1 2 -10 9 -18 15 -18 5 0 8 7 4 15
-3 9 0 15 8 15 8 0 16 6 19 14 5 14 17 16 105 24 l32 3 0 -86z m378 76 c15 -1
22 -6 19 -14 -2 -6 -10 -11 -16 -9 -16 3 -14 -18 3 -24 8 -3 11 -14 9 -28 -3
-13 1 -27 8 -31 8 -6 11 -4 7 7 -4 9 0 15 8 15 10 0 12 -7 8 -21 -5 -17 -4
-19 7 -8 10 9 11 17 2 30 -9 15 -7 18 7 19 16 1 18 -5 14 -50 -5 -58 -12 -71
-21 -39 -6 25 -33 30 -33 6 0 -8 -4 -13 -10 -9 -5 3 -7 13 -4 23 4 11 -1 9
-14 -7 -10 -13 -24 -21 -29 -18 -6 4 -16 0 -23 -8 -7 -8 -16 -13 -20 -10 -5 3
-12 0 -15 -6 -5 -7 -12 -3 -22 10 -8 12 -22 21 -31 22 -11 1 -8 4 8 10 19 7
14 8 -23 5 -54 -4 -69 -13 -47 -26 13 -8 13 -11 -1 -26 -21 -20 -114 -25 -138
-7 -9 7 -11 13 -6 13 52 6 72 20 28 20 -37 0 -43 15 -43 108 l0 64 173 -6 c94
-3 182 -5 195 -5z m1076 -22 c11 -23 13 -36 5 -50 -6 -13 -6 -19 1 -19 5 0 10
-5 10 -11 0 -5 -5 -7 -11 -4 -6 4 -5 -2 3 -14 12 -20 22 -21 168 -22 93 -1
143 -4 125 -9 -48 -12 -777 -12 -770 0 4 6 12 10 18 9 35 -4 58 2 51 13 -8 12
-7 53 1 93 2 11 4 23 4 27 2 11 49 15 218 17 l162 1 15 -31z m-5075 -621 c-1
-348 -4 -559 -10 -538 -5 19 -8 76 -8 125 3 311 3 486 1 680 -2 121 -1 231 2
245 2 14 5 33 5 43 1 9 3 17 6 17 3 0 5 -258 4 -572z m3292 477 c5 4 8 -19 7
-57 l-1 -63 -8 55 c-4 35 -6 8 -3 -75 5 -154 7 -994 5 -1820 -1 -385 -5 -585
-11 -575 -6 10 -9 493 -8 1325 1 721 3 1286 5 1257 2 -30 8 -50 14 -47z m623
-90 c-18 -14 -18 -14 2 -15 11 0 29 -10 40 -22 19 -21 19 -21 0 -14 -12 4 -23
2 -28 -6 -6 -10 -8 -10 -8 0 0 6 -4 12 -10 12 -5 0 -10 -6 -10 -14 0 -8 -13
-16 -29 -18 -17 -2 -28 -1 -25 4 3 4 14 8 25 8 11 0 17 5 14 10 -4 6 -11 8
-16 4 -5 -3 -16 0 -24 6 -11 9 -15 9 -15 1 0 -9 -5 -9 -20 -1 -24 13 -41 10
-61 -12 -9 -10 -19 -15 -23 -11 -3 3 -6 -1 -6 -9 0 -23 -22 -37 -45 -27 -13 5
-15 8 -5 9 11 0 10 4 -5 16 -22 17 -30 59 -12 63 7 1 44 3 84 5 40 1 76 5 79
9 4 4 13 2 21 -4 10 -9 13 -8 13 2 0 9 3 10 8 4 9 -12 32 -18 31 -7 -3 14 1
18 22 19 21 2 21 1 3 -12z m-2531 -350 l5 -270 379 -5 378 -5 -380 -5 -380 -5
-3 -202 -2 -203 381 0 c210 0 380 -2 377 -5 -2 -3 -172 -5 -376 -5 -204 -1
-373 -4 -374 -8 -2 -4 -2 -85 0 -179 l3 -173 371 0 c204 0 369 -2 366 -5 -2
-3 -171 -6 -374 -8 l-369 -2 -2 -205 c-2 -113 0 -269 3 -347 l6 -143 372 -2
371 -3 -375 -5 -375 -5 3 -151 c2 -101 0 -154 -7 -159 -8 -4 -11 340 -11 1186
0 656 2 1190 4 1188 2 -2 6 -125 9 -274z m-718 234 c86 -1 104 -5 137 -25 21
-13 42 -24 48 -24 6 0 10 -25 10 -57 0 -41 -3 -54 -10 -43 -8 13 -10 13 -10
-2 0 -9 7 -23 15 -32 10 -10 12 -17 4 -21 -20 -13 -26 1 -28 62 0 20 -3 34 -5
32 -6 -6 -15 -78 -16 -118 0 -19 -3 -31 -7 -28 -3 4 -6 54 -6 112 1 58 -2 103
-6 101 -4 -3 -8 -46 -9 -97 -2 -128 -22 -143 -22 -17 0 53 -3 99 -7 101 -5 3
-8 -30 -8 -74 0 -43 -5 -83 -10 -88 -7 -7 -10 11 -9 52 1 34 0 46 -2 27 -8
-63 -14 -78 -34 -83 -13 -3 -20 -14 -21 -29 0 -21 -1 -21 -8 -3 -6 15 -9 11
-14 -20 -4 -22 -7 -66 -7 -97 0 -61 -15 -82 -18 -25 -5 126 -14 228 -24 259
-10 33 -9 41 8 59 16 17 16 22 4 30 -12 7 -13 11 -2 18 11 7 11 9 -2 14 -9 4
-16 2 -16 -3 0 -5 -6 -7 -14 -4 -10 4 -14 -1 -13 -15 1 -12 5 -21 9 -21 4 0 8
-7 8 -15 0 -8 -5 -15 -11 -15 -8 0 -8 -4 -1 -13 7 -8 7 -18 2 -27 -8 -12 -10
-9 -11 10 -1 14 -1 31 0 39 2 7 -2 10 -8 7 -13 -9 -44 51 -37 71 4 10 14 13
29 9 13 -3 67 -6 122 -7z m3174 -15 c6 4 11 1 11 -6 0 -10 3 -9 10 2 8 12 10
12 16 -3 3 -9 11 -14 18 -10 8 5 8 3 -1 -8 -15 -18 -20 -51 -10 -66 5 -7 4
-13 -1 -13 -6 0 -8 -20 -5 -45 2 -25 0 -45 -5 -45 -5 0 -10 6 -9 13 2 53 -4
97 -13 92 -6 -4 -8 -30 -6 -63 3 -35 1 -61 -7 -71 -9 -12 -9 -13 1 -7 8 5 12
0 12 -14 0 -12 -4 -19 -8 -16 -8 5 -15 -59 -14 -121 0 -13 -4 -23 -9 -23 -5 0
-9 26 -10 58 -1 31 -2 102 -4 157 -3 121 4 213 15 195 4 -7 13 -9 19 -6z
m-2523 -804 c-2 -283 -5 -740 -5 -1014 -1 -275 -3 -497 -6 -494 -9 8 -16 2118
-8 2163 16 86 22 -146 19 -655z m1094 399 l0 -149 140 0 140 0 0 26 c0 49 33
234 41 234 13 0 10 -42 -9 -157 l-18 -103 206 -1 c137 -1 190 -4 160 -10 -25
-4 -183 -8 -351 -8 l-307 -1 -1 -170 -1 -170 362 -2 c266 -1 335 -3 258 -9
-58 -4 -220 -8 -360 -8 l-255 0 -3 -28 c-2 -15 1 -62 6 -103 5 -42 5 -76 1
-78 -5 -2 -9 -19 -9 -38 0 -24 5 -34 15 -34 21 0 19 -46 -2 -54 -15 -6 -15 -8
-3 -16 9 -6 126 -7 295 -3 154 3 312 2 350 -3 54 -7 -14 -10 -290 -14 l-359
-5 -4 -187 -3 -188 363 -1 c200 -1 347 -5 328 -9 -19 -4 -181 -8 -359 -9 -179
-1 -326 -3 -327 -4 -1 -1 -4 -140 -6 -309 -1 -170 -6 -308 -10 -308 -5 0 -8
468 -8 1041 0 691 3 1038 10 1034 6 -4 10 -67 10 -156z m-1400 -981 c0 -463
-2 -839 -4 -837 -9 9 -14 1679 -5 1679 5 0 9 -340 9 -842z m1239 172 c0 -297
-4 -540 -8 -540 -5 0 -9 243 -10 540 -1 359 2 540 8 540 7 0 10 -182 10 -540z
m-2251 -382 l-2 -733 -6 675 c-5 628 -3 790 6 790 2 0 3 -330 2 -732z m-930
-10 c-1 -433 -4 -654 -8 -552 -4 95 -5 218 -4 275 1 57 3 305 3 552 1 246 3
447 6 447 3 0 4 -325 3 -722z m4772 552 c0 12 3 11 11 -2 5 -10 16 -18 24 -18
8 0 18 -7 23 -16 8 -15 12 -14 33 7 16 16 24 19 27 9 3 -7 10 1 18 19 8 18 18
30 24 26 6 -4 5 -16 -5 -35 -17 -33 -20 -74 -5 -65 6 3 10 1 10 -5 0 -7 7 -9
16 -6 8 3 13 2 10 -3 -3 -5 1 -12 10 -15 10 -4 13 -2 8 7 -5 8 -4 9 4 2 6 -5
12 -37 14 -70 1 -33 7 -63 13 -67 6 -5 5 -8 -2 -8 -15 0 -17 -36 -3 -45 6 -3
10 -16 9 -28 -1 -20 -2 -20 -9 3 -8 25 -8 25 -10 -5 -1 -16 -2 -48 -1 -70 0
-32 -1 -36 -9 -20 -7 16 -9 13 -9 -19 -1 -47 -12 -41 -17 9 -7 84 -20 60 -22
-42 -1 -60 -3 -126 -3 -148 -2 -62 0 -85 9 -84 24 4 32 -4 31 -33 l-1 -33 -8
30 -8 30 -2 -35 -2 -35 -7 30 c-7 29 -7 29 -19 9 -6 -12 -8 -25 -4 -29 4 -5 2
-5 -5 -1 -9 5 -11 -13 -7 -71 3 -43 7 -83 9 -90 2 -7 0 -15 -6 -18 -5 -4 -7
-11 -4 -16 4 -5 1 -9 -5 -9 -6 0 -10 14 -9 33 2 17 1 46 0 62 -2 26 -3 28 -11
10 -7 -17 -9 -16 -9 10 -1 17 -6 37 -11 45 -7 11 -9 6 -8 -20 4 -67 -2 -111
-13 -105 -6 4 -7 19 -4 37 5 20 4 28 -3 24 -6 -3 -13 0 -16 6 -3 7 -4 -22 -1
-64 3 -44 2 -78 -3 -78 -5 0 -9 12 -9 28 0 15 -3 34 -6 42 -3 8 -8 51 -10 95
-3 44 -8 89 -12 100 -6 17 -5 18 5 5 9 -12 10 -10 5 13 -4 21 -3 27 6 21 8 -4
9 -3 5 5 -13 20 -19 214 -7 207 6 -4 11 -2 11 3 0 6 -4 11 -9 11 -6 0 -10 8
-10 18 -1 9 -2 28 -2 42 0 14 -3 36 -6 49 -3 20 -6 22 -14 10 -5 -7 -9 -26 -9
-40 0 -14 -3 -29 -7 -33 -10 -10 -11 -46 -1 -46 4 0 8 -12 7 -27 0 -25 -1 -26
-9 -8 -8 18 -9 17 -9 -8 -1 -16 3 -26 9 -22 11 7 12 -27 9 -190 -1 -55 -2
-157 -3 -227 -1 -95 -4 -128 -13 -128 -11 0 -18 20 -14 43 2 12 -17 8 -21 -5
-3 -9 -12 -6 -30 7 -13 11 -23 26 -20 33 2 8 -5 22 -17 33 -20 19 -21 29 -21
207 0 159 2 183 13 162 7 -14 10 -27 6 -30 -5 -3 -4 -12 1 -20 8 -13 10 -12
10 3 0 24 47 27 63 4 5 -7 6 -2 2 11 -3 12 -2 22 2 22 5 0 8 28 7 63 -3 82 -4
85 -14 62 -6 -14 -9 1 -9 49 -1 63 -2 68 -21 63 -13 -3 -20 0 -20 9 0 26 -19
14 -29 -18 -8 -29 -9 -23 -11 42 -1 41 -4 133 -6 205 -5 151 -2 166 27 139 11
-10 17 -24 15 -31 -3 -8 1 -16 9 -19 16 -7 20 -39 6 -48 -5 -4 -5 -20 2 -41 5
-19 14 -32 19 -29 8 5 10 -9 14 -111 3 -101 9 -145 18 -145 5 0 3 -7 -4 -15
-7 -9 -11 -18 -8 -21 8 -7 38 61 37 83 0 17 -1 16 -10 -2 -8 -17 -9 -16 -4 5
12 51 12 96 -1 129 -14 33 -10 56 7 46 5 -4 9 -2 9 4 0 5 -8 15 -17 21 -12 8
-14 13 -6 16 7 3 9 12 6 20 -3 8 0 21 6 28 9 11 9 15 -1 19 -7 3 2 6 20 6 25
1 32 5 32 21 0 12 -10 25 -25 32 -14 6 -25 19 -25 28 0 28 13 32 27 8 8 -15
13 -18 13 -8z m-5368 -580 c17 -52 34 -99 39 -105 5 -5 9 -18 9 -29 0 -17 209
-693 275 -891 l23 -70 1 78 c1 48 5 77 12 77 7 0 10 -34 8 -102 -2 -117 -4
-108 86 -396 36 -118 64 -216 62 -218 -2 -3 -17 35 -31 83 -15 48 -34 103 -42
121 -8 18 -14 43 -14 56 0 12 -3 26 -7 30 -5 4 -8 11 -8 14 0 4 -5 21 -12 37
-18 47 -165 508 -279 880 -45 145 -37 135 -114 135 -65 0 -68 1 -62 22 3 14 2
19 -6 14 -7 -4 -12 -14 -12 -22 0 -9 -11 -14 -35 -14 -19 0 -35 5 -35 10 0 6
5 10 11 10 6 0 9 6 6 14 -4 11 13 14 86 15 50 1 92 3 94 4 1 2 -25 88 -57 192
-58 182 -76 258 -44 185 8 -19 29 -78 46 -130z m3113 -1990 c7 -30 6 -31 -13
-21 -26 14 -50 15 -36 1 5 -5 22 -11 36 -12 24 -2 29 -11 78 -171 28 -93 50
-171 47 -173 -2 -2 -12 22 -21 54 -33 103 -34 104 -55 92 -19 -10 -19 -11 5
-35 23 -23 32 -46 17 -44 -30 5 -35 -2 -30 -41 6 -44 -8 -45 -24 -3 -9 25 -10
25 -25 7 -14 -17 -15 -17 -10 -1 3 10 0 17 -8 17 -8 0 -17 7 -20 16 -5 14 -10
12 -31 -12 l-24 -28 -12 34 c-11 30 -13 31 -20 14 -4 -10 -8 -13 -8 -6 -1 7
-6 10 -11 7 -6 -4 -8 -11 -5 -16 4 -5 2 -9 -3 -9 -15 0 -22 54 -9 62 8 5 6 8
-5 8 -10 0 -20 10 -23 23 -4 19 -25 171 -25 183 0 2 35 5 78 5 42 1 70 3 60 6
-18 5 -31 30 -22 44 3 6 0 16 -6 24 -11 13 -15 12 -31 -6 -18 -21 -18 -23 -1
-35 16 -12 16 -13 0 -14 -9 0 -20 5 -24 12 -5 7 -11 5 -21 -7 -18 -26 -31 -10
-39 46 l-6 46 38 6 c22 4 71 7 109 7 69 1 69 1 40 16 -22 10 -24 13 -8 10 20
-3 22 0 17 28 -5 35 40 -83 51 -134z m1322 143 c6 -1 135 -83 287 -182 l275
-180 38 12 38 12 -49 3 c-36 2 -65 14 -112 44 -37 22 -61 44 -57 50 3 7 1 8
-5 4 -7 -4 -29 5 -49 20 -59 43 -59 44 -7 27 27 -9 60 -17 74 -18 14 -2 33 -6
43 -10 9 -4 23 -2 31 4 7 6 22 8 31 4 13 -4 16 -3 10 6 -9 16 -13 18 233 -121
105 -60 192 -112 192 -114 0 -3 -5 -2 -10 1 -6 4 -18 1 -26 -6 -12 -10 -13 -9
-8 7 6 15 4 17 -6 7 -10 -9 -19 -9 -41 3 -35 17 -172 27 -162 11 4 -7 0 -8
-12 -3 -16 6 -16 4 -4 -11 15 -19 9 -16 -84 45 -20 14 -40 23 -42 20 -3 -3 65
-51 150 -108 85 -57 155 -104 155 -106 0 -2 -8 -1 -17 3 -16 6 -15 3 2 -17
l20 -22 -34 20 c-19 12 -38 19 -43 16 -20 -13 -53 -12 -78 1 -29 15 -72 17
-63 3 2 -5 14 -6 26 -2 22 6 22 6 2 -9 -11 -9 -24 -12 -30 -8 -5 5 -21 11 -35
14 -24 6 -23 5 5 -18 19 -16 23 -23 11 -18 -15 5 -17 3 -12 -8 4 -8 -2 -4 -13
9 -11 13 -24 23 -28 23 -7 -1 -243 172 -378 277 -27 21 -111 85 -185 140 -184
139 -195 148 -180 157 9 6 11 4 5 -5 -6 -10 -4 -12 9 -7 9 4 15 3 12 -2 -3 -5
1 -11 9 -15 8 -3 17 0 21 6 5 7 2 8 -7 3 -11 -6 -11 -5 -3 4 9 10 17 10 33 2
12 -7 21 -8 21 -3 0 5 -12 14 -26 21 -15 6 -24 14 -21 17 3 3 13 1 24 -5 20
-11 117 -52 121 -52 1 1 2 4 1 9 -1 4 -5 6 -10 5 -5 -2 -9 2 -9 8 0 5 -5 7
-12 3 -7 -5 -8 -3 -3 6 6 10 4 12 -7 7 -16 -6 -38 10 -38 28 0 6 3 7 8 0 4 -5
12 -11 19 -12z m766 -169 c436 -231 409 -216 395 -227 -9 -6 -7 -7 5 -3 17 5
97 -27 97 -39 0 -3 -13 1 -30 10 -16 8 -37 15 -47 15 -16 -1 -15 -3 6 -20 l23
-20 -46 4 c-27 3 -44 1 -41 -5 4 -5 -5 -5 -20 1 -38 14 -41 12 -16 -9 49 -43
-2 -26 -110 35 -63 36 -174 99 -247 141 -72 41 -135 80 -139 86 -3 5 -1 7 5 4
5 -4 21 -3 34 3 19 8 16 9 -22 8 -39 -1 -60 7 -143 56 -53 32 -97 60 -97 62 0
1 28 -10 63 -25 61 -28 107 -43 107 -35 0 2 -24 19 -52 39 -56 37 -58 46 -5
18 26 -13 30 -13 20 -1 -7 8 -31 21 -53 28 -22 7 -40 17 -40 21 0 4 -10 5 -22
2 -16 -4 -20 -2 -13 5 6 5 19 12 30 15 11 3 21 5 23 6 1 0 152 -78 335 -175z
m113 145 c3 -5 13 -9 22 -9 15 0 15 2 2 10 -37 24 16 4 198 -76 359 -157 417
-184 362 -170 -21 5 -20 4 5 -8 83 -41 148 -68 169 -70 20 -3 204 -82 216 -94
3 -3 -7 -2 -22 2 -17 4 -28 2 -28 -4 0 -5 5 -10 12 -10 6 0 9 -3 6 -6 -3 -3
-23 2 -43 10 -45 19 -59 20 -49 4 5 -8 -2 -9 -24 -5 -17 4 -34 2 -37 -3 -3 -6
-11 -10 -18 -10 -6 0 -2 7 9 15 10 8 14 15 9 15 -6 0 -16 -5 -21 -10 -8 -8
-40 3 -107 34 -149 69 -151 72 -49 69 64 -2 82 0 69 8 -10 6 -49 10 -88 10
-48 0 -68 3 -63 11 4 7 3 8 -5 4 -6 -4 -25 0 -42 8 -26 13 -29 13 -19 1 7 -8
9 -15 6 -15 -13 0 -463 217 -487 234 -20 15 -21 17 -4 12 70 -19 73 -14 11 17
-38 19 -63 36 -56 39 19 6 59 -2 66 -13z m-1501 -36 c-2 -8 -1 -12 3 -9 8 5
72 -58 157 -154 32 -36 28 -34 -21 13 -42 40 -65 56 -77 51 -9 -3 -27 2 -41
13 -19 15 -22 23 -14 39 9 18 8 18 -5 2 -8 -10 -21 -18 -29 -18 -8 0 -20 -6
-27 -12 -10 -11 -11 -9 -5 7 7 17 6 18 -8 5 -9 -8 -13 -17 -9 -20 3 -3 15 -16
26 -30 15 -19 16 -22 3 -11 -16 12 -18 11 -18 -5 -1 -18 -1 -18 -15 1 -33 47
-71 73 -59 40 4 -8 10 -13 14 -10 5 3 11 1 14 -4 4 -5 -1 -8 -9 -7 -8 1 -36
31 -61 66 l-47 63 34 -20 c49 -30 80 -38 73 -20 -6 16 29 26 77 23 33 -2 33
-2 18 27 -12 22 -12 22 10 3 12 -11 19 -26 16 -33z m460 8 c-2 -4 2 -8 8 -8
12 0 176 -121 491 -362 119 -91 156 -131 121 -131 -26 0 -65 20 -65 32 0 9 3
10 8 2 4 -6 17 -14 29 -18 18 -6 22 -4 17 8 -6 16 -160 133 -204 156 -14 7
-28 18 -32 24 -5 7 -8 7 -8 -2 0 -8 -5 -10 -12 -6 -8 4 -10 3 -5 -2 5 -5 14
-9 20 -9 5 0 12 -6 15 -13 2 -7 -2 -10 -11 -6 -29 11 -31 -19 -3 -43 15 -12
23 -23 18 -23 -5 0 -15 7 -23 16 -14 17 -62 44 -80 44 -6 0 -8 -7 -5 -16 3 -8
2 -13 -3 -9 -13 7 -42 -5 -35 -16 9 -15 -3 -10 -17 8 -12 15 -12 16 1 8 13 -8
13 -6 1 8 -7 9 -17 15 -21 12 -10 -6 -32 20 -24 28 6 6 54 -20 65 -36 4 -5 10
-4 13 2 4 6 -4 15 -20 21 -15 6 -24 13 -21 16 3 3 15 0 27 -6 11 -6 26 -9 33
-6 7 2 2 8 -10 11 -13 4 -23 12 -23 17 0 6 -9 8 -20 5 -11 -3 -18 -2 -15 3 3
4 -2 11 -11 14 -8 3 -12 2 -9 -4 8 -13 1 -13 -40 4 -18 8 -35 12 -38 10 -2 -2
-57 43 -122 100 -88 77 -120 111 -122 131 -3 23 -1 26 14 21 21 -9 22 -9 48
-7 15 1 17 3 7 10 -19 11 11 23 36 14 15 -6 14 -3 -3 17 l-20 23 27 -18 c15
-9 26 -20 23 -24z m1190 14 c32 -14 63 -24 69 -22 6 3 -5 12 -24 20 -19 9 -30
16 -23 17 19 0 63 -19 79 -35 14 -13 44 -24 119 -39 27 -6 25 -4 -14 19 -23
14 -48 25 -54 25 -6 0 -7 3 -4 6 4 4 28 -1 54 -11 102 -38 825 -345 837 -356
10 -9 -245 75 -274 91 -12 6 -26 10 -32 8 -5 -2 28 -19 75 -38 47 -19 83 -38
81 -42 -3 -4 -1 -8 3 -8 5 0 18 -7 29 -16 18 -15 18 -15 0 -10 -10 4 -24 2
-30 -4 -9 -6 -83 23 -247 96 -129 59 -316 141 -416 185 -171 73 -306 137 -292
139 4 0 32 -11 64 -25z m-1178 -219 c73 -65 130 -123 126 -129 -3 -6 -1 -7 5
-3 7 4 98 -70 227 -184 118 -106 215 -194 215 -197 0 -3 -33 23 -72 59 -154
135 -198 169 -209 163 -11 -7 3 -30 19 -30 11 0 112 -87 112 -97 0 -4 -5 -8
-11 -8 -5 0 -8 4 -5 9 3 5 -2 8 -12 7 -9 0 -16 5 -15 12 2 6 -2 12 -7 12 -6 0
-10 -7 -10 -15 0 -25 -13 -18 -64 34 -47 48 -48 49 -29 68 19 19 20 43 2 43
-6 0 -22 14 -36 30 -13 17 -29 28 -34 25 -12 -8 12 -45 29 -45 7 0 10 -4 7
-10 -3 -5 -2 -10 3 -10 6 0 12 -6 15 -14 10 -24 -22 -26 -44 -3 -19 21 -21 21
-33 4 -11 -14 -18 -16 -41 -7 -26 10 -27 9 -14 -7 8 -10 19 -21 24 -25 6 -4
10 -11 10 -16 0 -5 15 -26 33 -47 25 -30 35 -36 44 -27 9 9 9 12 -3 12 -19 0
-74 56 -62 63 5 3 35 -19 68 -48 46 -42 55 -54 38 -52 -12 0 -20 4 -17 8 2 4
0 10 -5 14 -11 6 -33 -29 -24 -39 3 -3 1 -6 -6 -6 -8 0 -11 6 -7 16 4 10 2 13
-7 7 -23 -14 -44 -13 -60 5 -9 9 -16 20 -16 25 -1 4 -3 6 -5 5 -9 -5 -75 65
-70 74 3 5 0 7 -8 6 -7 -2 -12 3 -10 10 1 6 -1 11 -5 10 -5 -1 -71 63 -149
142 -226 233 -257 268 -248 281 4 7 3 10 -3 6 -5 -3 -25 10 -44 31 l-34 37 36
-33 c33 -30 62 -35 38 -6 -16 19 13 29 40 15 25 -14 34 -14 25 0 -4 7 1 7 16
-1 19 -10 22 -10 17 2 -4 11 1 14 21 10 l27 -5 -25 29 c-31 35 73 -53 247
-210z m1778 130 c395 -152 672 -267 672 -280 0 -9 -12 -11 -49 -5 -26 4 -52
11 -58 14 -5 3 -20 -1 -32 -10 -23 -15 -22 -15 12 -10 27 4 30 3 15 -4 -12 -6
-15 -10 -6 -10 8 -1 12 -3 9 -6 -3 -3 -79 25 -169 63 -90 39 -236 100 -324
137 -192 80 -415 177 -415 180 0 1 15 1 34 1 19 -1 32 -4 30 -7 -2 -4 18 -9
44 -12 26 -4 61 -9 77 -12 23 -4 19 0 -20 20 -70 35 -47 28 180 -59z m-3473
-41 c-6 -72 -9 -80 -27 -77 -68 9 -88 1 -62 -25 12 -13 19 -14 30 -5 12 10 13
8 10 -12 -3 -16 -10 -23 -19 -19 -10 4 -12 0 -8 -11 5 -12 2 -15 -12 -10 -11
3 -4 -4 14 -16 17 -12 32 -27 32 -32 0 -6 -6 -5 -15 2 -9 7 -19 10 -22 6 -4
-4 -1 -11 7 -16 8 -5 11 -12 8 -16 -9 -8 -38 20 -39 38 0 9 -2 9 -6 -2 -4 -8
-13 -21 -22 -28 -14 -12 -14 -13 5 -9 17 4 20 1 17 -14 -3 -11 -10 -22 -16
-26 -7 -4 -8 0 -4 11 6 15 3 17 -26 11 -17 -4 -35 -12 -38 -17 -10 -16 -20 8
-12 29 4 12 -5 7 -27 -15 -40 -38 -53 -28 -44 33 7 50 11 55 32 49 14 -5 15
-4 2 5 -13 10 -13 12 0 21 12 8 12 10 1 10 -11 0 -11 3 -1 15 9 11 10 15 1 15
-20 0 -41 -27 -35 -44 3 -9 2 -16 -3 -16 -5 0 -15 -23 -22 -51 -7 -27 -15 -48
-17 -46 -9 8 39 166 49 160 5 -3 7 4 3 18 -3 13 -3 18 0 11 3 -6 11 -9 16 -6
7 4 8 2 4 -4 -11 -17 9 -15 24 3 9 11 9 15 1 15 -22 0 -32 49 -20 96 11 42 22
54 33 36 8 -13 41 -8 69 11 32 21 43 22 27 2 -10 -13 -9 -15 8 -15 15 0 20 -5
16 -15 -7 -18 -1 -18 49 -4 31 8 37 15 38 37 1 15 3 20 5 12 2 -8 1 -51 -4
-95z m824 49 c15 -23 22 -30 19 -16 -9 32 11 27 31 -7 18 -30 41 -32 29 -4 -4
13 -3 14 9 4 12 -10 20 -10 38 0 21 11 22 11 10 -4 -12 -14 -11 -16 5 -13 21
5 67 -29 59 -43 -3 -5 1 -14 9 -21 8 -7 15 -20 15 -30 0 -10 7 -23 15 -30 10
-9 15 -9 15 -1 0 6 -4 11 -10 11 -5 0 -10 7 -10 15 0 8 3 15 8 15 12 0 29 -46
22 -64 -5 -15 -12 -10 -45 27 -41 45 -73 67 -97 67 -8 -1 -4 -9 10 -20 13 -11
18 -21 12 -25 -5 -3 -10 -2 -10 3 0 6 -7 13 -15 16 -9 3 -15 1 -14 -7 3 -25
-1 -38 -11 -32 -6 4 -8 10 -6 14 3 4 -1 8 -9 9 -8 1 -21 3 -29 4 -17 2 -79
126 -70 140 4 6 3 8 -3 5 -6 -4 -15 5 -22 19 -17 39 14 17 45 -32z m2760 40
c13 -3 21 -10 18 -15 -3 -5 1 -6 9 -3 7 2 36 -5 63 -16 l49 -22 -30 -13 c-40
-18 -23 -19 19 -1 30 13 35 12 50 -5 9 -10 25 -19 35 -19 11 0 23 -5 27 -11 3
-6 15 -8 26 -6 11 3 79 -17 152 -44 72 -28 179 -69 239 -91 59 -23 106 -43
104 -45 -2 -1 -55 16 -118 38 -125 45 -211 71 -217 64 -2 -2 9 -7 24 -11 33
-8 166 -61 234 -93 75 -36 0 -15 -128 35 -124 48 -167 55 -53 8 80 -33 87 -52
8 -24 -93 33 -407 157 -413 162 -3 3 17 4 43 2 34 -2 25 1 -32 12 -76 15 -279
83 -271 91 2 2 31 -6 65 -18 34 -11 65 -19 68 -16 3 3 -12 10 -33 16 -34 10
-78 31 -64 31 3 0 30 -7 60 -15 63 -17 74 -13 33 10 -15 9 -20 14 -10 11 11
-4 30 -9 43 -12z m-2699 -249 c67 -132 122 -242 123 -245 0 -7 -77 -3 -89 5
-22 13 -33 -6 -15 -26 9 -10 13 -19 8 -19 -15 0 -29 14 -41 40 -6 14 -12 19
-12 12 -1 -16 -18 0 -37 33 -7 12 -23 20 -44 21 -18 1 -28 -1 -23 -5 15 -9 26
-51 14 -51 -6 0 -11 5 -11 12 0 6 -10 22 -22 35 l-21 23 89 0 c52 0 84 -4 76
-9 -11 -6 -10 -10 3 -15 15 -5 15 -9 4 -23 -12 -14 -12 -16 2 -11 9 4 22 1 28
-5 15 -15 14 -6 -4 37 -8 20 -19 36 -24 36 -4 0 -13 11 -19 25 -10 22 -15 24
-32 15 -16 -8 -20 -8 -20 4 0 8 7 16 15 18 10 2 12 7 5 18 -8 13 -11 13 -19 1
-5 -7 -14 -11 -20 -7 -7 5 -8 1 -4 -10 4 -12 3 -15 -5 -10 -7 4 -12 14 -12 21
0 8 -9 19 -20 25 -11 6 -20 17 -20 25 0 8 -8 15 -17 15 -15 0 -16 -2 -3 -10
13 -8 13 -10 -2 -10 -20 0 -36 22 -20 28 7 2 12 8 12 14 0 7 -5 7 -13 -1 -8
-6 -18 -7 -22 -3 -5 4 -6 0 -2 -10 7 -19 -17 -19 -36 2 -6 7 -7 10 -1 7 6 -3
11 0 11 8 0 8 -3 14 -6 13 -22 -2 -32 4 -28 16 3 8 0 20 -8 26 -10 8 -14 8
-17 -1 -2 -7 -14 22 -26 64 -12 42 -25 83 -29 93 -4 12 -3 15 6 10 7 -5 28 -8
47 -8 19 0 40 -6 47 -12 17 -18 61 -40 53 -28 -3 6 0 13 6 15 10 4 9 8 -2 17
-12 9 -5 10 29 5 41 -5 43 -4 30 11 -12 15 -12 17 1 13 8 -3 70 -113 137 -244z
m2148 75 c182 -89 365 -178 408 -197 84 -39 101 -57 21 -22 -27 11 -66 27 -88
35 -33 12 -37 12 -32 -1 4 -12 -4 -14 -45 -10 -27 3 -59 10 -70 16 -12 6 -23
8 -26 5 -4 -3 -12 -1 -20 6 -7 6 -16 8 -20 4 -3 -3 -1 -6 6 -6 7 0 9 -5 6 -10
-4 -6 -1 -9 6 -8 6 2 14 -3 17 -11 2 -8 -42 11 -99 41 -57 30 -171 90 -254
133 -82 43 -195 102 -249 131 l-100 53 40 4 c21 2 68 2 104 1 62 -2 82 -11
395 -164z m-3360 30 c-10 -11 -25 -19 -34 -18 -9 2 -16 -1 -17 -7 -4 -27 -30
-75 -41 -75 -6 0 -18 -9 -26 -20 -8 -11 -17 -17 -20 -13 -12 11 -8 23 7 23 8
0 12 7 10 18 -3 9 7 30 21 46 28 32 33 45 10 26 -8 -6 -18 -9 -23 -6 -8 5 -60
-45 -54 -52 1 -1 -3 -9 -10 -16 -10 -10 -15 -11 -20 -2 -5 6 -8 2 -8 -11 0
-15 -5 -21 -14 -17 -8 3 -19 -3 -26 -16 -6 -11 -15 -18 -20 -15 -6 3 -7 0 -4
-8 3 -8 -2 -17 -10 -20 -9 -4 -16 -16 -16 -27 0 -11 -5 -20 -11 -20 -13 0 -15
-4 51 138 l53 112 110 0 c110 0 110 0 92 -20z m1780 -76 c11 -18 13 -24 4 -19
-8 5 -11 4 -6 -1 5 -5 14 -9 22 -9 7 0 90 -83 185 -185 245 -262 264 -284 182
-205 -39 38 -72 66 -72 61 0 -5 -9 3 -20 17 -14 17 -28 24 -45 22 -34 -3 -39
-10 -18 -26 14 -12 15 -12 9 0 -6 9 -5 12 4 9 22 -7 23 -28 3 -28 -21 0 -101
82 -95 98 2 6 -2 13 -7 17 -7 4 -8 0 -4 -11 3 -9 2 -15 -3 -12 -5 2 -24 10
-41 17 -18 7 -30 17 -27 23 4 6 10 5 16 -3 8 -11 9 -11 5 1 -2 8 -11 14 -20
14 -9 -1 -14 2 -11 7 3 5 -2 9 -10 9 -9 0 -16 7 -16 16 0 8 -4 12 -10 9 -5 -3
-16 10 -24 30 -8 19 -18 35 -21 35 -3 0 -3 -4 0 -10 13 -21 -6 -9 -47 30 -24
22 -36 40 -29 40 11 0 10 4 -4 14 -17 12 -15 13 20 10 21 -1 47 2 58 7 18 10
18 12 1 30 -9 10 -12 19 -7 19 6 0 18 -12 28 -26z m-313 -195 c71 1 109 -3
114 -11 5 -7 3 -8 -6 -3 -7 4 -2 -6 10 -23 13 -18 21 -35 17 -39 -4 -3 -7 -1
-7 5 0 7 -5 12 -11 12 -5 0 -8 -4 -5 -9 4 -5 -3 -7 -14 -4 -11 3 -17 9 -14 14
3 5 9 7 14 4 5 -3 11 -1 15 5 10 16 -17 11 -37 -7 -15 -14 -21 -14 -31 -3 -10
10 -9 11 2 5 9 -5 12 -4 7 3 -4 7 -18 12 -30 12 -13 0 -29 7 -36 15 -7 8 -17
15 -23 15 -5 0 -2 -9 8 -20 10 -11 26 -20 37 -20 11 0 18 -7 18 -17 0 -15 -2
-15 -9 -4 -8 12 -12 12 -25 2 -13 -11 -17 -11 -22 3 -7 18 -13 19 -33 7 -13
-8 -13 -12 0 -28 13 -16 13 -17 -3 -4 -10 7 -24 11 -31 8 -8 -3 -23 15 -39 45
l-27 50 27 -7 c15 -4 75 -6 134 -6z m2166 -86 c-10 -3 -18 -6 -18 -9 0 -12 44
-45 85 -63 26 -11 44 -25 40 -30 -6 -11 -28 -5 -61 16 -12 8 -32 16 -44 18
-12 2 -28 9 -36 16 -8 6 -14 7 -14 2 0 -5 11 -15 25 -21 14 -6 25 -15 25 -20
0 -4 16 -16 35 -26 31 -17 39 -36 14 -36 -6 0 -7 5 -4 11 4 6 1 9 -7 7 -19 -4
-159 73 -152 83 3 5 -3 6 -12 2 -13 -5 -15 -3 -9 7 5 8 4 11 -3 6 -9 -5 -82
29 -82 40 0 2 53 3 118 2 64 0 109 -3 100 -5z"/>
</g>
</svg>
